<svg width="512" height="512" viewBox="0 0 425 406" xmlns="http://www.w3.org/2000/svg">
  <g clip-path="url(#clip0_177_77)">
    <path d="M377.228 81.7162C382.794 98.1184 384.969 123.109 386.407 140.506C395.585 251.009 364.548 368.957 243.941 399.402C104.241 434.676 -10.8006 323.178 0.810401 183.705C4.349 141.354 17.3607 158.198 45.8169 160.668C70.1079 162.806 109.069 155.508 125.693 135.936C129.859 131.033 131.738 103.905 134.798 93.5848C168.894 -21.7096 337.235 -36.0477 377.265 81.7162H377.228ZM322.786 100.477C322.786 89.5303 313.902 80.6842 302.992 80.6842C292.081 80.6842 283.198 89.5672 283.198 100.477C283.198 111.388 292.081 120.271 302.992 120.271C313.902 120.271 322.786 111.388 322.786 100.477ZM270.702 219.531C267.421 218.794 267.09 220.49 265.505 222.591C255.626 235.565 253.009 248.208 238.633 261.845C200.372 298.114 155.329 297.046 106.378 287.499C95.7258 288.973 128.716 310.794 131.37 312.121C200.667 346.215 281.76 298.594 270.702 219.568V219.531Z" fill="#FDD34A"/>
    <path d="M386.407 140.506C384.969 123.108 382.794 98.118 377.229 81.7158C387.955 84.8857 424.41 96.2751 425 108.512C425.442 118.059 394.995 135.567 386.407 140.469V140.506Z" fill="#FCA249"/>
    <path d="M270.702 219.531C281.76 298.557 200.668 346.178 131.37 312.084C128.716 310.794 95.7262 288.937 106.379 287.462C155.329 297.009 200.336 298.078 238.634 261.808C253.009 248.208 255.663 235.528 265.505 222.554C267.09 220.49 267.422 218.794 270.702 219.495V219.531Z" fill="#FCB74D"/>
    <path d="M302.991 120.27C313.923 120.27 322.785 111.409 322.785 100.477C322.785 89.5458 313.923 80.6841 302.991 80.6841C292.059 80.6841 283.197 89.5458 283.197 100.477C283.197 111.409 292.059 120.27 302.991 120.27Z" fill="#51514B"/>
  </g>
  <defs>
    <clipPath id="clip0_177_77">
      <rect width="425" height="406" fill="white"/>
    </clipPath>
  </defs>
</svg>


